<svg width="640" height="360" viewBox="0 0 640 360" fill="none" xmlns="http://www.w3.org/2000/svg">
  <rect width="640" height="360" rx="36" fill="#F4F6FB"/>
  <rect x="24" y="24" width="592" height="312" rx="28" fill="white"/>
  <rect x="56" y="56" width="112" height="112" rx="28" fill="url(#paint0_linear)"/>
  <path d="M112 92C129.673 92 144 106.327 144 124C144 141.673 129.673 156 112 156C94.3269 156 80 141.673 80 124C80 106.327 94.3269 92 112 92Z" fill="white" fill-opacity="0.88"/>
  <rect x="192" y="68" width="222" height="22" rx="11" fill="#222632"/>
  <rect x="192" y="104" width="312" height="16" rx="8" fill="#8F97AB"/>
  <rect x="192" y="132" width="266" height="16" rx="8" fill="#C8CDDA"/>
  <rect x="56" y="214" width="528" height="18" rx="9" fill="#E7EAF3"/>
  <rect x="56" y="246" width="484" height="18" rx="9" fill="#E7EAF3"/>
  <rect x="56" y="278" width="218" height="18" rx="9" fill="#E7EAF3"/>
  <defs>
    <linearGradient id="paint0_linear" x1="56" y1="56" x2="168" y2="168" gradientUnits="userSpaceOnUse">
      <stop stop-color="#9A74FF"/>
      <stop offset="1" stop-color="#5B8CFF"/>
    </linearGradient>
  </defs>
</svg>
